<?xml version="1.0" encoding="UTF-8" standalone="no"?>
<!DOCTYPE svg PUBLIC "-//W3C//DTD SVG 1.1//EN"
 "http://www.w3.org/Graphics/SVG/1.1/DTD/svg11.dtd">
<!-- Generated by graphviz version 2.43.0 (0)
 -->
<!-- Title: %3 Pages: 1 -->
<svg width="720pt" height="208pt"
 viewBox="0.00 0.00 720.00 208.11" xmlns="http://www.w3.org/2000/svg" xmlns:xlink="http://www.w3.org/1999/xlink">
<g id="graph0" class="graph" transform="scale(0.27 0.27) rotate(0) translate(4 779.19)">
<title>%3</title>
<polygon fill="white" stroke="transparent" points="-4,4 -4,-779.19 2705.56,-779.19 2705.56,4 -4,4"/>
<!-- WAITING -->
<g id="node1" class="node">
<title>WAITING</title>
<ellipse fill="none" stroke="black" cx="53.95" cy="-270.19" rx="53.89" ry="53.89"/>
<text text-anchor="middle" x="53.95" y="-266.49" font-family="Times,serif" font-size="14.00">WAITING</text>
</g>
<!-- GRASPING_WOUNDED -->
<g id="node2" class="node">
<title>GRASPING_WOUNDED</title>
<ellipse fill="none" stroke="black" cx="1607.57" cy="-546.19" rx="120.48" ry="120.48"/>
<text text-anchor="middle" x="1607.57" y="-542.49" font-family="Times,serif" font-size="14.00">GRASPING_WOUNDED</text>
</g>
<!-- WAITING&#45;&gt;GRASPING_WOUNDED -->
<g id="edge1" class="edge">
<title>WAITING&#45;&gt;GRASPING_WOUNDED</title>
<path fill="none" stroke="black" d="M67.43,-322.63C100.98,-449.03 205.58,-760.19 422.53,-760.19 422.53,-760.19 422.53,-760.19 1220.94,-760.19 1330.46,-760.19 1437.98,-693.38 1511.55,-634.42"/>
<polygon fill="black" stroke="black" points="1513.89,-637.03 1519.46,-628.01 1509.49,-631.59 1513.89,-637.03"/>
<text text-anchor="middle" x="828.86" y="-763.99" font-family="Times,serif" font-size="14.00">found_wounded</text>
</g>
<!-- EXPLORING_FRONTIERS -->
<g id="node3" class="node">
<title>EXPLORING_FRONTIERS</title>
<ellipse fill="none" stroke="black" cx="423.53" cy="-482.19" rx="130.78" ry="130.78"/>
<text text-anchor="middle" x="423.53" y="-478.49" font-family="Times,serif" font-size="14.00">EXPLORING_FRONTIERS</text>
</g>
<!-- WAITING&#45;&gt;EXPLORING_FRONTIERS -->
<g id="edge2" class="edge">
<title>WAITING&#45;&gt;EXPLORING_FRONTIERS</title>
<path fill="none" stroke="black" d="M101.13,-296.82C151.05,-325.62 232.68,-372.7 301.18,-412.2"/>
<polygon fill="black" stroke="black" points="299.48,-415.26 309.89,-417.22 302.98,-409.2 299.48,-415.26"/>
<text text-anchor="middle" x="200.39" y="-392.99" font-family="Times,serif" font-size="14.00">waiting_time_over</text>
</g>
<!-- GRASPING_WOUNDED&#45;&gt;WAITING -->
<g id="edge3" class="edge">
<title>GRASPING_WOUNDED&#45;&gt;WAITING</title>
<path fill="none" stroke="black" d="M1533.45,-451.2C1463,-371.37 1348.55,-270.19 1220.94,-270.19 422.53,-270.19 422.53,-270.19 422.53,-270.19 315.78,-270.19 191.59,-270.19 118.34,-270.19"/>
<polygon fill="black" stroke="black" points="117.9,-266.69 107.9,-270.19 117.9,-273.69 117.9,-266.69"/>
<text text-anchor="middle" x="828.86" y="-273.99" font-family="Times,serif" font-size="14.00">lost_wounded</text>
</g>
<!-- SEARCHING_RESCUE_CENTER -->
<g id="node4" class="node">
<title>SEARCHING_RESCUE_CENTER</title>
<ellipse fill="none" stroke="black" cx="2068" cy="-321.19" rx="161.37" ry="161.37"/>
<text text-anchor="middle" x="2068" y="-317.49" font-family="Times,serif" font-size="14.00">SEARCHING_RESCUE_CENTER</text>
</g>
<!-- GRASPING_WOUNDED&#45;&gt;SEARCHING_RESCUE_CENTER -->
<g id="edge4" class="edge">
<title>GRASPING_WOUNDED&#45;&gt;SEARCHING_RESCUE_CENTER</title>
<path fill="none" stroke="black" d="M1715.76,-493.58C1774.65,-464.68 1848.69,-428.33 1913.6,-396.48"/>
<polygon fill="black" stroke="black" points="1915.26,-399.56 1922.7,-392.01 1912.18,-393.28 1915.26,-399.56"/>
<text text-anchor="middle" x="1817.31" y="-476.99" font-family="Times,serif" font-size="14.00">holding_wounded</text>
</g>
<!-- EXPLORING_FRONTIERS&#45;&gt;GRASPING_WOUNDED -->
<g id="edge8" class="edge">
<title>EXPLORING_FRONTIERS&#45;&gt;GRASPING_WOUNDED</title>
<path fill="none" stroke="black" d="M540.62,-540.84C595.41,-565.33 662.59,-590.91 726.17,-603.19 847.43,-626.6 1257.4,-610.9 1460.33,-582.19 1467.11,-581.23 1474.04,-580.09 1481.01,-578.81"/>
<polygon fill="black" stroke="black" points="1482.08,-582.17 1491.24,-576.86 1480.76,-575.3 1482.08,-582.17"/>
<text text-anchor="middle" x="1025.05" y="-617.99" font-family="Times,serif" font-size="14.00">found_wounded</text>
</g>
<!-- FOLLOWING_WALL -->
<g id="node6" class="node">
<title>FOLLOWING_WALL</title>
<ellipse fill="none" stroke="black" cx="828.86" cy="-482.19" rx="102.88" ry="102.88"/>
<text text-anchor="middle" x="828.86" y="-478.49" font-family="Times,serif" font-size="14.00">FOLLOWING_WALL</text>
</g>
<!-- EXPLORING_FRONTIERS&#45;&gt;FOLLOWING_WALL -->
<g id="edge9" class="edge">
<title>EXPLORING_FRONTIERS&#45;&gt;FOLLOWING_WALL</title>
<path fill="none" stroke="black" d="M554.36,-482.19C606.39,-482.19 665.76,-482.19 715.86,-482.19"/>
<polygon fill="black" stroke="black" points="716.08,-485.69 726.08,-482.19 716.07,-478.69 716.08,-485.69"/>
<text text-anchor="middle" x="640.17" y="-485.99" font-family="Times,serif" font-size="14.00">no_frontiers_left</text>
</g>
<!-- SEARCHING_RESCUE_CENTER&#45;&gt;WAITING -->
<g id="edge5" class="edge">
<title>SEARCHING_RESCUE_CENTER&#45;&gt;WAITING</title>
<path fill="none" stroke="black" d="M1922.38,-252.06C1833.86,-215.95 1717.09,-179.19 1608.57,-179.19 422.53,-179.19 422.53,-179.19 422.53,-179.19 310.92,-179.19 185.69,-219.21 113.98,-246.17"/>
<polygon fill="black" stroke="black" points="112.33,-243.05 104.23,-249.88 114.82,-249.59 112.33,-243.05"/>
<text text-anchor="middle" x="1025.05" y="-182.99" font-family="Times,serif" font-size="14.00">lost_rescue_center</text>
</g>
<!-- GOING_RESCUE_CENTER -->
<g id="node5" class="node">
<title>GOING_RESCUE_CENTER</title>
<ellipse fill="none" stroke="black" cx="2566.37" cy="-135.19" rx="135.38" ry="135.38"/>
<text text-anchor="middle" x="2566.37" y="-131.49" font-family="Times,serif" font-size="14.00">GOING_RESCUE_CENTER</text>
</g>
<!-- SEARCHING_RESCUE_CENTER&#45;&gt;GOING_RESCUE_CENTER -->
<g id="edge6" class="edge">
<title>SEARCHING_RESCUE_CENTER&#45;&gt;GOING_RESCUE_CENTER</title>
<path fill="none" stroke="black" d="M2219.27,-264.88C2286.31,-239.76 2364.7,-210.38 2429.91,-185.95"/>
<polygon fill="black" stroke="black" points="2431.3,-189.17 2439.43,-182.38 2428.84,-182.61 2431.3,-189.17"/>
<text text-anchor="middle" x="2330.18" y="-254.99" font-family="Times,serif" font-size="14.00">found_rescue_center</text>
</g>
<!-- GOING_RESCUE_CENTER&#45;&gt;WAITING -->
<g id="edge7" class="edge">
<title>GOING_RESCUE_CENTER&#45;&gt;WAITING</title>
<path fill="none" stroke="black" d="M2431.72,-122.73C2331.88,-114.48 2192.02,-105.19 2069,-105.19 422.53,-105.19 422.53,-105.19 422.53,-105.19 288.97,-105.19 249.9,-124.28 134.89,-192.19 121.33,-200.2 108.33,-210.97 96.89,-221.95"/>
<polygon fill="black" stroke="black" points="94.25,-219.65 89.62,-229.17 99.18,-224.62 94.25,-219.65"/>
<text text-anchor="middle" x="1219.94" y="-108.99" font-family="Times,serif" font-size="14.00">lost_rescue_center</text>
</g>
<!-- FOLLOWING_WALL&#45;&gt;GRASPING_WOUNDED -->
<g id="edge12" class="edge">
<title>FOLLOWING_WALL&#45;&gt;GRASPING_WOUNDED</title>
<path fill="none" stroke="black" d="M928.21,-509.1C983.63,-522.88 1054.42,-538.21 1118.55,-545.19 1239.68,-558.38 1378.72,-557.06 1477.33,-553.38"/>
<polygon fill="black" stroke="black" points="1477.49,-556.88 1487.35,-552.99 1477.22,-549.88 1477.49,-556.88"/>
<text text-anchor="middle" x="1219.94" y="-558.99" font-family="Times,serif" font-size="14.00">found_wounded</text>
</g>
<!-- SEARCHING_WALL -->
<g id="node7" class="node">
<title>SEARCHING_WALL</title>
<ellipse fill="none" stroke="black" cx="1219.94" cy="-426.19" rx="101.28" ry="101.28"/>
<text text-anchor="middle" x="1219.94" y="-422.49" font-family="Times,serif" font-size="14.00">SEARCHING_WALL</text>
</g>
<!-- FOLLOWING_WALL&#45;&gt;SEARCHING_WALL -->
<g id="edge13" class="edge">
<title>FOLLOWING_WALL&#45;&gt;SEARCHING_WALL</title>
<path fill="none" stroke="black" d="M930.56,-467.69C985.36,-459.81 1053.23,-450.04 1109.35,-441.96"/>
<polygon fill="black" stroke="black" points="1109.93,-445.41 1119.33,-440.52 1108.94,-438.48 1109.93,-445.41"/>
<text text-anchor="middle" x="1025.05" y="-465.99" font-family="Times,serif" font-size="14.00">lost_wall</text>
</g>
<!-- SEARCHING_WALL&#45;&gt;GRASPING_WOUNDED -->
<g id="edge10" class="edge">
<title>SEARCHING_WALL&#45;&gt;GRASPING_WOUNDED</title>
<path fill="none" stroke="black" d="M1317.26,-456.16C1367.45,-471.78 1429.4,-491.06 1483.08,-507.76"/>
<polygon fill="black" stroke="black" points="1482.06,-511.11 1492.65,-510.74 1484.14,-504.43 1482.06,-511.11"/>
<text text-anchor="middle" x="1404.33" y="-503.99" font-family="Times,serif" font-size="14.00">found_wounded</text>
</g>
<!-- SEARCHING_WALL&#45;&gt;FOLLOWING_WALL -->
<g id="edge11" class="edge">
<title>SEARCHING_WALL&#45;&gt;FOLLOWING_WALL</title>
<path fill="none" stroke="black" d="M1119.24,-413.91C1070.28,-410.59 1010.75,-410.62 958.55,-422.19 948.89,-424.33 939.1,-427.27 929.45,-430.71"/>
<polygon fill="black" stroke="black" points="928,-427.52 919.87,-434.31 930.46,-434.08 928,-427.52"/>
<text text-anchor="middle" x="1025.05" y="-425.99" font-family="Times,serif" font-size="14.00">found_wall</text>
</g>
</g>
</svg>
